<svg width="86" height="86" viewBox="0 0 86 86" fill="none" xmlns="http://www.w3.org/2000/svg">
<path opacity="0.1" d="M42.875 0C19.198 0 0 19.198 0 42.875C0 66.552 19.198 85.75 42.875 85.75C66.552 85.75 85.75 66.552 85.75 42.875C85.75 19.198 66.552 0 42.875 0ZM42.875 78.4766C23.2176 78.4766 7.27344 62.5324 7.27344 42.875C7.27344 23.2176 23.2176 7.27344 42.875 7.27344C62.5324 7.27344 78.4766 23.2176 78.4766 42.875C78.4766 62.5324 62.5324 78.4766 42.875 78.4766ZM47.44 40.6547L45.0092 40.09V27.2371C48.6459 27.7348 50.8949 30.0125 51.2777 32.807C51.3256 33.1898 51.651 33.4674 52.0338 33.4674H56.3309C56.7807 33.4674 57.1348 33.075 57.0965 32.6252C56.5127 26.6629 51.6031 22.8348 45.0475 22.1744V19.0449C45.0475 18.6238 44.7029 18.2793 44.2818 18.2793H41.5926C41.1715 18.2793 40.827 18.6238 40.827 19.0449V22.2031C34.0512 22.8635 28.7492 26.6055 28.7492 33.5918C28.7492 40.0613 33.5152 43.1813 38.5205 44.3775L40.8844 44.9805V58.6373C36.6543 58.0727 34.2809 55.8141 33.7928 52.7707C33.7354 52.407 33.41 52.1391 33.0367 52.1391H28.6152C28.1654 52.1391 27.8113 52.5219 27.8496 52.9717C28.2803 58.2354 32.2711 63.0779 40.7887 63.7V66.7051C40.7887 67.1262 41.1332 67.4707 41.5543 67.4707H44.2723C44.6934 67.4707 45.0379 67.1262 45.0379 66.6955L45.0188 63.6617C52.5123 63.0014 57.8717 58.9914 57.8717 51.7945C57.8621 45.1527 53.6416 42.1859 47.44 40.6547ZM40.8748 39.1043C40.3389 38.9512 39.8891 38.8076 39.4393 38.6258C36.2045 37.4582 34.702 35.5728 34.702 33.142C34.702 29.668 37.3338 27.6869 40.8748 27.2371V39.1043ZM45.0092 58.666V45.8705C45.3059 45.9566 45.5738 46.0236 45.8514 46.0811C50.3781 47.4592 51.8998 49.3732 51.8998 52.3113C51.8998 56.0533 49.0861 58.3023 45.0092 58.666Z" fill="#02265A"/>
</svg>
