<svg width="9" height="6" viewBox="0 0 9 6" fill="none" xmlns="http://www.w3.org/2000/svg">
<path d="M4.49294 5.49831C4.343 5.49864 4.19769 5.44054 4.08223 5.33411L0.231828 1.76453C0.100775 1.64335 0.0183608 1.46922 0.0027155 1.28044C-0.0129298 1.09166 0.0394754 0.903698 0.148402 0.757904C0.257329 0.61211 0.413856 0.520426 0.583547 0.503021C0.753238 0.485616 0.922194 0.543915 1.05325 0.665095L4.49294 3.86344L7.93264 0.779322C7.99828 0.72002 8.07381 0.675734 8.15488 0.649011C8.23596 0.622288 8.32098 0.613654 8.40507 0.623605C8.48915 0.633557 8.57064 0.661897 8.64485 0.706998C8.71906 0.752099 8.78452 0.813071 8.83748 0.886409C8.89625 0.959815 8.94076 1.04593 8.96822 1.13937C8.99568 1.2328 9.0055 1.33153 8.99707 1.42938C8.98864 1.52724 8.96213 1.6221 8.91921 1.70802C8.87629 1.79395 8.81788 1.86908 8.74764 1.92873L4.89723 5.37695C4.77846 5.46655 4.63611 5.50928 4.49294 5.49831Z" fill="white"/>
</svg>
