<svg width="80" height="80" viewBox="0 0 80 80" fill="none" xmlns="http://www.w3.org/2000/svg">
<g opacity="0.1" clip-path="url(#clip0_626_1069)">
<path fill-rule="evenodd" clip-rule="evenodd" d="M0 0H5V75H80V80H0V0ZM50 17.5C50 16.837 50.2634 16.2011 50.7322 15.7322C51.2011 15.2634 51.837 15 52.5 15H72.5C73.163 15 73.7989 15.2634 74.2678 15.7322C74.7366 16.2011 75 16.837 75 17.5V37.5C75 38.163 74.7366 38.7989 74.2678 39.2678C73.7989 39.7366 73.163 40 72.5 40C71.837 40 71.2011 39.7366 70.7322 39.2678C70.2634 38.7989 70 38.163 70 37.5V24.5L51.935 46.585C51.7139 46.8549 51.4386 47.0756 51.1271 47.2327C50.8155 47.3899 50.4745 47.4801 50.126 47.4975C49.7775 47.5149 49.4292 47.4592 49.1035 47.3339C48.7778 47.2086 48.482 47.0165 48.235 46.77L35.3 33.835L17.02 58.97C16.6201 59.4785 16.0387 59.8122 15.3979 59.9009C14.7571 59.9897 14.1069 59.8266 13.5839 59.446C13.0608 59.0654 12.7057 58.4968 12.5931 57.8598C12.4804 57.2228 12.6191 56.5669 12.98 56.03L32.98 28.53C33.1923 28.2376 33.4654 27.9946 33.7806 27.8179C34.0959 27.6412 34.4456 27.535 34.8059 27.5065C35.1661 27.4779 35.5282 27.5279 35.8673 27.6528C36.2064 27.7777 36.5144 27.9746 36.77 28.23L49.815 41.28L67.225 20H52.5C51.837 20 51.2011 19.7366 50.7322 19.2678C50.2634 18.7989 50 18.163 50 17.5Z" fill="#02265A"/>
</g>
<defs>
<clipPath id="clip0_626_1069">
<rect width="80" height="80" fill="white"/>
</clipPath>
</defs>
</svg>
