<svg width="86" height="85" viewBox="0 0 86 85" fill="none" xmlns="http://www.w3.org/2000/svg">
<path d="M82.238 33.3927H79.4051V15.1785C79.4051 14.3734 79.1067 13.6013 78.5754 13.0319C78.0441 12.4626 77.3236 12.1428 76.5723 12.1428H8.58422C7.91344 12.1545 7.26054 11.9108 6.74178 11.4549C6.22301 10.9991 5.87205 10.3607 5.75139 9.65353V8.56068C5.87205 7.85349 6.22301 7.21514 6.74178 6.75929C7.26054 6.30344 7.91344 6.05968 8.58422 6.0714H75.3825C76.1338 6.0714 76.8544 5.75157 77.3856 5.18227C77.9169 4.61296 78.2153 3.84082 78.2153 3.0357C78.2153 2.23058 77.9169 1.45844 77.3856 0.889137C76.8544 0.319833 76.1338 0 75.3825 0H8.58422C6.33028 0 4.16865 0.959496 2.57487 2.66741C0.98109 4.37532 0.0857135 6.69175 0.0857135 9.10711C0.0658299 9.47108 0.0658299 9.83599 0.0857135 10.2V72.6444C0.0968332 74.2788 0.408278 75.895 1.00226 77.4005C1.59625 78.906 2.46114 80.2714 3.54756 81.4187C4.63398 82.566 5.92064 83.4728 7.33408 84.0872C8.74753 84.7016 10.2601 85.0117 11.7853 84.9997H76.5723C77.3236 84.9997 78.0441 84.6798 78.5754 84.1105C79.1067 83.5412 79.4051 82.7691 79.4051 81.964V63.7497H82.238C82.9893 63.7497 83.7098 63.4299 84.2411 62.8606C84.7723 62.2913 85.0708 61.5192 85.0708 60.714V36.4284C85.0708 35.6233 84.7723 34.8512 84.2411 34.2819C83.7098 33.7126 82.9893 33.3927 82.238 33.3927ZM73.7395 78.9283H11.7853C10.2097 78.9446 8.69181 78.2935 7.56183 77.1167C6.43184 75.9399 5.78118 74.3326 5.75139 72.6444V17.8499C6.67092 18.1355 7.62775 18.2585 8.58422 18.2142H73.7395V33.3927H53.9096C50.153 33.3927 46.5503 34.9919 43.894 37.8384C41.2377 40.6849 39.7454 44.5456 39.7454 48.5712C39.7454 52.5968 41.2377 56.4575 43.894 59.3041C46.5503 62.1506 50.153 63.7497 53.9096 63.7497H73.7395V78.9283ZM79.4051 57.6783H53.9096C51.6557 57.6783 49.494 56.7188 47.9002 55.0109C46.3065 53.303 45.4111 50.9866 45.4111 48.5712C45.4111 46.1559 46.3065 43.8395 47.9002 42.1315C49.494 40.4236 51.6557 39.4641 53.9096 39.4641H79.4051V57.6783Z" fill="#02265A"/>
<path d="M56.7712 53.1248C59.118 53.1248 61.0205 51.0861 61.0205 48.5713C61.0205 46.0564 59.118 44.0177 56.7712 44.0177C54.4244 44.0177 52.522 46.0564 52.522 48.5713C52.522 51.0861 54.4244 53.1248 56.7712 53.1248Z" fill="#02265A"/>
</svg>
